<svg width="20" height="20" viewBox="0 0 20 20" fill="none" xmlns="http://www.w3.org/2000/svg">
<path d="M17.4511 6.82384C17.9346 7.30156 18.1425 7.90305 18.2397 8.61743C18.3333 9.3055 18.3333 10.1804 18.3333 11.2658V11.3529C18.3333 12.4383 18.3333 13.3131 18.2397 14.0012C18.1425 14.7156 17.9346 15.3171 17.4511 15.7948C16.9676 16.2725 16.3589 16.478 15.636 16.574C14.9396 16.6665 14.0542 16.6665 12.9558 16.6665H8.85163C7.75318 16.6665 6.8678 16.6665 6.17146 16.574C5.44849 16.478 4.83977 16.2725 4.35631 15.7948C4.06301 15.505 3.87109 15.1696 3.7438 14.7911C4.47001 14.881 5.36846 14.8809 6.40651 14.8809H10.5811C11.6492 14.8809 12.5694 14.881 13.3063 14.7831C14.0961 14.6782 14.8531 14.4416 15.4672 13.8348C16.0812 13.2281 16.3207 12.48 16.4268 11.6997C16.5259 10.9715 16.5259 10.0622 16.5258 9.00683V8.85008C16.5259 7.8241 16.5259 6.93614 16.4349 6.21846C16.8181 6.34423 17.1577 6.53391 17.4511 6.82384Z" fill="#78716C"/>
<path d="M8.49382 7.53955C7.71753 7.53955 7.08822 8.16138 7.08822 8.92845C7.08822 9.69552 7.71753 10.3173 8.49382 10.3173C9.27011 10.3173 9.89941 9.69552 9.89941 8.92845C9.89941 8.16138 9.27011 7.53955 8.49382 7.53955Z" fill="#78716C"/>
<path fill-rule="evenodd" clip-rule="evenodd" d="M2.37238 4.86387C1.66663 5.56125 1.66663 6.68365 1.66663 8.92845C1.66663 11.1733 1.66663 12.2957 2.37238 12.993C3.07814 13.6904 4.21403 13.6904 6.48582 13.6904H10.5018C12.7736 13.6904 13.9095 13.6904 14.6153 12.993C15.321 12.2957 15.321 11.1733 15.321 8.92845C15.321 6.68365 15.321 5.56125 14.6153 4.86387C13.9095 4.1665 12.7736 4.1665 10.5018 4.1665H6.48582C4.21403 4.1665 3.07814 4.1665 2.37238 4.86387ZM5.88342 8.92845C5.88342 7.50389 7.05213 6.34906 8.49382 6.34906C9.9355 6.34906 11.1042 7.50389 11.1042 8.92845C11.1042 10.353 9.9355 11.5078 8.49382 11.5078C7.05213 11.5078 5.88342 10.353 5.88342 8.92845ZM12.9114 11.111C12.5787 11.111 12.309 10.8445 12.309 10.5158V7.34113C12.309 7.01239 12.5787 6.74589 12.9114 6.74589C13.2441 6.74589 13.5138 7.01239 13.5138 7.34113V10.5158C13.5138 10.8445 13.2441 11.111 12.9114 11.111ZM3.47382 10.5158C3.47382 10.8445 3.74353 11.111 4.07622 11.111C4.40892 11.111 4.67862 10.8445 4.67862 10.5158L4.67862 7.34113C4.67862 7.01239 4.40892 6.74589 4.07622 6.74589C3.74353 6.74589 3.47382 7.01239 3.47382 7.34113L3.47382 10.5158Z" fill="#78716C"/>
</svg>
