<svg width="16" height="17" viewBox="0 0 16 17" fill="none" xmlns="http://www.w3.org/2000/svg">
<path d="M7.98902 11.4993C7.75585 11.4998 7.52987 11.4184 7.35033 11.2693L2.36052 7.2693C2.15672 7.09956 2.02855 6.85565 2.00422 6.59122C1.97989 6.3268 2.06139 6.06352 2.23078 5.8593C2.40017 5.65508 2.64359 5.52666 2.90748 5.50228C3.17136 5.4779 3.43411 5.55956 3.63791 5.7293L7.98902 9.2093L12.3401 5.8893C12.4422 5.80623 12.5597 5.7442 12.6858 5.70677C12.8118 5.66934 12.9441 5.65724 13.0748 5.67118C13.2056 5.68512 13.3323 5.72482 13.4477 5.78799C13.5631 5.85117 13.6649 5.93657 13.7473 6.0393C13.8387 6.14212 13.9079 6.26275 13.9506 6.39362C13.9933 6.52449 14.0086 6.66279 13.9954 6.79986C13.9823 6.93692 13.9411 7.06979 13.8744 7.19015C13.8076 7.31051 13.7168 7.41575 13.6075 7.4993L8.61774 11.3293C8.43303 11.4548 8.21167 11.5147 7.98902 11.4993Z" fill="#57534E"/>
</svg>
