<svg width="20" height="20" viewBox="0 0 20 20" fill="none" xmlns="http://www.w3.org/2000/svg">
<g clip-path="url(#clip0_107980_7881)">
<path d="M13.75 10.6943C13.366 10.6943 13.0556 11.0054 13.0556 11.3887V14.1665C13.0556 14.5491 12.7445 14.8609 12.3611 14.8609H10.2778V4.44427C10.2778 3.8512 9.9 3.32135 9.33196 3.12412L9.12636 3.05534H12.3611C12.7445 3.05534 13.0556 3.36712 13.0556 3.74987V5.83319C13.0556 6.21643 13.366 6.52759 13.75 6.52759C14.134 6.52759 14.4444 6.21643 14.4444 5.83319V3.74987C14.4444 2.60127 13.5097 1.66654 12.3611 1.66654H4.89587C4.86944 1.66654 4.8473 1.67835 4.82162 1.6818C4.78816 1.679 4.75626 1.6665 4.7223 1.6665C3.95632 1.66654 3.33337 2.28939 3.33337 3.05537V15.5553C3.33337 16.1484 3.71114 16.6783 4.27917 16.8755L8.45836 18.2686C8.60003 18.3123 8.74092 18.3332 8.88893 18.3332C9.65491 18.3332 10.2777 17.7102 10.2777 16.9442V16.2498H12.3611C13.5097 16.2498 14.4444 15.3151 14.4444 14.1665V11.3887C14.4444 11.0054 14.134 10.6943 13.75 10.6943H13.75Z" fill="#57534E"/>
<path d="M19.7966 8.12002L17.0187 5.3423C16.9216 5.24511 16.7979 5.17891 16.6632 5.15206C16.5284 5.12521 16.3888 5.13893 16.2619 5.19148C16.0028 5.2992 15.8333 5.55261 15.8333 5.83325V7.91657H13.0556C12.6722 7.91657 12.3611 8.22761 12.3611 8.61097C12.3611 8.99434 12.6722 9.30537 13.0556 9.30537H15.8333V11.3887C15.8333 11.6693 16.0028 11.9228 16.2619 12.0305C16.3888 12.083 16.5284 12.0967 16.6631 12.0699C16.7979 12.0431 16.9216 11.9769 17.0187 11.8797L19.7966 9.10192C20.068 8.83044 20.068 8.39151 19.7966 8.12002Z" fill="#57534E"/>
</g>
<defs>
<clipPath id="clip0_107980_7881">
<rect width="20" height="20" fill="white"/>
</clipPath>
</defs>
</svg>
