<svg width="20" height="20" viewBox="0 0 20 20" fill="none" xmlns="http://www.w3.org/2000/svg">
<path d="M0.742198 6.28898C0.71519 6.28891 0.688202 6.28748 0.661339 6.28469C0.564431 6.27408 0.470562 6.24449 0.385093 6.1976C0.299624 6.15071 0.224229 6.08745 0.163216 6.01142C0.102202 5.93539 0.0567643 5.84808 0.0294985 5.75448C0.0022327 5.66089 -0.00632729 5.56284 0.0043075 5.46593C0.0519638 5.02687 0.109386 4.60656 0.180479 4.17883V4.17179C0.523839 2.23625 2.24142 0.518669 4.17696 0.176482H4.18439C4.61173 0.103826 5.03282 0.0464037 5.4715 -8.06428e-05C5.6672 -0.0212669 5.8633 0.0361564 6.01666 0.159557C6.17002 0.282957 6.26808 0.462226 6.28927 0.657927C6.31046 0.853628 6.25303 1.04973 6.12963 1.20309C6.00623 1.35645 5.82696 1.45451 5.63126 1.4757C5.22993 1.5191 4.8299 1.57381 4.43165 1.63976C3.79415 1.75226 3.15509 2.10304 2.63165 2.62648C2.10821 3.14992 1.75782 3.78898 1.64415 4.42648C1.57814 4.82375 1.52345 5.21633 1.48009 5.62492C1.4608 5.80719 1.37474 5.97587 1.23851 6.09847C1.10227 6.22108 0.925482 6.28894 0.742198 6.28898ZM19.2555 6.29523C19.0726 6.29505 18.8963 6.22738 18.7603 6.10519C18.6242 5.983 18.5381 5.8149 18.5184 5.63312C18.4742 5.22375 18.4207 4.83117 18.3547 4.4339C18.2422 3.79601 17.8906 3.15695 17.3668 2.63351C16.843 2.11008 16.2043 1.75773 15.5668 1.64601C15.1686 1.57967 14.7686 1.52496 14.3672 1.48195C14.1715 1.46076 13.9922 1.3627 13.8688 1.20934C13.7454 1.05598 13.688 0.859878 13.7092 0.664177C13.7304 0.468476 13.8284 0.289207 13.9818 0.165807C14.1352 0.0424064 14.3313 -0.0150169 14.527 0.00616936C14.9656 0.053435 15.3863 0.111247 15.8141 0.182341H15.8215C17.7574 0.525701 19.475 2.24328 19.8168 4.17961V4.18703C19.8879 4.61398 19.9457 5.03508 19.993 5.47609C20.0134 5.67117 19.9557 5.86638 19.8326 6.01906C19.7095 6.17175 19.5309 6.26949 19.3359 6.29094C19.3092 6.29389 19.2824 6.29532 19.2555 6.29523ZM14.4461 20.0054C14.2563 20.005 14.0739 19.9319 13.9363 19.8011C13.7988 19.6703 13.7166 19.4918 13.7066 19.3023C13.6966 19.1128 13.7595 18.9266 13.8826 18.7821C14.0056 18.6376 14.1793 18.5457 14.368 18.5253C14.7777 18.4808 15.1703 18.4273 15.5672 18.3612C16.2051 18.2476 16.8442 17.8972 17.3676 17.3734C17.891 16.8495 18.2422 16.2109 18.3547 15.5734C18.4207 15.1757 18.4742 14.7835 18.5184 14.3741C18.5396 14.1784 18.6376 13.9992 18.791 13.8758C18.9443 13.7524 19.1404 13.6949 19.3361 13.7161C19.5318 13.7373 19.7111 13.8354 19.8345 13.9887C19.9579 14.1421 20.0153 14.3382 19.9942 14.5339C19.9469 14.973 19.8891 15.3933 19.818 15.821V15.8284C19.4762 17.764 17.7586 19.4816 15.8227 19.8234H15.8156C15.3877 19.8943 14.9578 19.9531 14.5266 19.9995C14.4999 20.0028 14.473 20.0048 14.4461 20.0054ZM5.55236 19.9999C5.52533 19.9999 5.49834 19.9983 5.4715 19.9952C5.03204 19.9476 4.61212 19.8902 4.18439 19.8191H4.17696C2.24142 19.4741 0.523839 17.7566 0.181651 15.8202V15.8128C0.109386 15.3866 0.0519638 14.9659 0.0043075 14.5265C-0.0168787 14.3308 0.0405446 14.1347 0.163945 13.9813C0.287345 13.828 0.466615 13.7299 0.662315 13.7087C0.858016 13.6875 1.05412 13.7449 1.20748 13.8683C1.36084 13.9917 1.4589 14.171 1.48009 14.3667C1.52462 14.7765 1.57814 15.1687 1.64415 15.5663C1.75782 16.2038 2.10939 16.8429 2.63165 17.3663C3.15392 17.8898 3.79415 18.2421 4.43165 18.3538C4.82931 18.4198 5.2215 18.4737 5.63126 18.5179C5.82069 18.5374 5.99538 18.629 6.11918 18.7737C6.24299 18.9184 6.30644 19.1051 6.2964 19.2953C6.28636 19.4855 6.20362 19.6645 6.06527 19.7954C5.92692 19.9262 5.74357 19.9989 5.55314 19.9984L5.55236 19.9999ZM10.1586 15.8554C9.24806 15.878 7.45939 15.7382 6.87462 15.5976C6.47618 15.5136 6.10157 15.2816 5.81993 14.9589C5.5412 14.6441 5.36597 14.2512 5.31798 13.8335V13.821C5.28757 13.5198 5.27817 13.2169 5.28986 12.9144C5.28986 12.9144 5.26759 12.6476 5.31798 12.1632V12.1511C5.3606 11.7534 5.53849 11.3825 5.82189 11.1003C6.10663 10.8151 6.47997 10.6353 6.88048 10.5905C7.46642 10.5284 9.25196 10.4945 10.159 10.4945C11.066 10.4945 12.5223 10.5284 13.1086 10.5905C13.5091 10.6353 13.8825 10.8151 14.1672 11.1003C14.4507 11.3826 14.6286 11.7537 14.6711 12.1515V12.1636C14.7001 12.4127 14.7148 12.6632 14.7152 12.914C14.7166 13.2174 14.702 13.5207 14.6715 13.8226V13.8347C14.6234 14.2527 14.4479 14.6459 14.1688 14.9609C13.8863 15.2835 13.5117 15.5155 13.1141 15.5995C12.5281 15.7312 11.0692 15.8616 10.1586 15.8554Z" fill="#78716C"/>
<path d="M9.94028 9.81318C11.5063 9.81318 12.7758 8.54367 12.7758 6.97764C12.7758 5.41161 11.5063 4.14209 9.94028 4.14209C8.37425 4.14209 7.10474 5.41161 7.10474 6.97764C7.10474 8.54367 8.37425 9.81318 9.94028 9.81318Z" fill="#78716C"/>
</svg>
