<svg width="24" height="24" viewBox="0 0 24 24" fill="none" xmlns="http://www.w3.org/2000/svg">
<path d="M17.3999 4.36426C19.0568 4.36426 20.3999 5.7074 20.3999 7.36426V16.6367C20.3999 18.2936 19.0568 19.6367 17.3999 19.6367H6.6001C4.94324 19.6367 3.6001 18.2936 3.6001 16.6367V7.36426C3.6001 5.7074 4.94324 4.36426 6.6001 4.36426H17.3999ZM12.6255 5.8916C11.5211 5.89176 10.6256 6.78722 10.6255 7.8916V16.1104C10.6257 17.2146 11.5212 18.1102 12.6255 18.1104H16.7202C17.8247 18.1104 18.72 17.2147 18.7202 16.1104V7.8916C18.7201 6.78712 17.8247 5.8916 16.7202 5.8916H12.6255Z" fill="#676E85"/>
</svg>
