<svg width="20" height="20" viewBox="0 0 20 20" fill="none" xmlns="http://www.w3.org/2000/svg">
<path d="M5.18503 3.83429C5.5555 3.58675 5.94449 3.37205 6.34754 3.19155C7.49077 2.67957 8.06239 2.42358 8.82284 2.91625C9.5833 3.40892 9.5833 4.21709 9.5833 5.83342V7.08342C9.5833 8.65477 9.5833 9.44044 10.0715 9.9286C10.5596 10.4168 11.3453 10.4168 12.9166 10.4168H14.1666C15.783 10.4168 16.5911 10.4168 17.0838 11.1772C17.5765 11.9377 17.3205 12.5093 16.8085 13.6525C16.628 14.0556 16.4133 14.4445 16.1658 14.815C15.2959 16.1169 14.0595 17.1316 12.6129 17.7308C11.1663 18.33 9.57451 18.4868 8.03883 18.1813C6.50315 17.8758 5.09253 17.1218 3.98537 16.0147C2.8782 14.9075 2.12421 13.4969 1.81875 11.9612C1.51328 10.4255 1.67006 8.83376 2.26925 7.38717C2.86844 5.94059 3.88314 4.70418 5.18503 3.83429Z" fill="#78716C"/>
<path d="M17.8717 5.891C17.1951 4.17376 15.8264 2.80499 14.1091 2.12848C12.8245 1.6224 11.6666 2.78613 11.6666 4.16684V7.50018C11.6666 7.96041 12.0397 8.33351 12.5 8.33351H15.8333C17.214 8.33351 18.3777 7.17562 17.8717 5.891Z" fill="#78716C"/>
</svg>
