<svg width="20" height="20" viewBox="0 0 20 20" fill="none" xmlns="http://www.w3.org/2000/svg">
<path fill-rule="evenodd" clip-rule="evenodd" d="M12.5 1.6665H14.1666C15.738 1.6665 16.5236 1.6665 17.0118 2.15466C17.5 2.64281 17.5 3.42849 17.5 4.99984V17.7082H18.3333C18.6785 17.7082 18.9583 17.988 18.9583 18.3332C18.9583 18.6783 18.6785 18.9582 18.3333 18.9582H1.66663C1.32145 18.9582 1.04163 18.6783 1.04163 18.3332C1.04163 17.988 1.32145 17.7082 1.66663 17.7082H2.49996V7.49984C2.49996 5.92849 2.49996 5.14281 2.98811 4.65466C3.47627 4.1665 4.26194 4.1665 5.83329 4.1665H9.16663C10.738 4.1665 11.5236 4.1665 12.0118 4.65466C12.5 5.14281 12.5 5.92849 12.5 7.49984V17.7082H13.75V7.49984L13.75 7.42526C13.7501 6.7039 13.7501 6.04251 13.6778 5.50449C13.5981 4.91202 13.4107 4.28581 12.8957 3.77078C12.3807 3.25574 11.7544 3.06833 11.162 2.98867C10.6315 2.91735 9.98116 2.91643 9.27163 2.91649C9.34188 2.59379 9.45912 2.35033 9.65478 2.15466C10.1429 1.6665 10.9286 1.6665 12.5 1.6665ZM4.37496 6.6665C4.37496 6.32133 4.65478 6.0415 4.99996 6.0415H9.99996C10.3451 6.0415 10.625 6.32133 10.625 6.6665C10.625 7.01168 10.3451 7.2915 9.99996 7.2915H4.99996C4.65478 7.2915 4.37496 7.01168 4.37496 6.6665ZM4.37496 9.1665C4.37496 8.82133 4.65478 8.5415 4.99996 8.5415H9.99996C10.3451 8.5415 10.625 8.82133 10.625 9.1665C10.625 9.51168 10.3451 9.7915 9.99996 9.7915H4.99996C4.65478 9.7915 4.37496 9.51168 4.37496 9.1665ZM4.37496 11.6665C4.37496 11.3213 4.65478 11.0415 4.99996 11.0415H9.99996C10.3451 11.0415 10.625 11.3213 10.625 11.6665C10.625 12.0117 10.3451 12.2915 9.99996 12.2915H4.99996C4.65478 12.2915 4.37496 12.0117 4.37496 11.6665ZM7.49996 15.2082C7.84514 15.2082 8.12496 15.488 8.12496 15.8332V17.7082H6.87496V15.8332C6.87496 15.488 7.15478 15.2082 7.49996 15.2082Z" fill="#78716C"/>
</svg>
