<svg width="20" height="20" viewBox="0 0 20 20" fill="none" xmlns="http://www.w3.org/2000/svg">
<path d="M18.96 7.9199L17.68 7.6799C17.52 7.1999 17.36 6.7199 17.04 6.2399L17.84 5.1999C18.08 4.8799 18 4.4799 17.76 4.1599L15.92 2.3199C15.68 2.0799 15.2 1.9999 14.88 2.2399L13.84 2.9599C13.36 2.7199 12.8 2.4799 12.24 2.3199L12 1.0399C11.92 0.639902 11.6 0.399902 11.2 0.399902H8.56002C8.16002 0.399902 7.84002 0.719902 7.76002 1.0399L7.60002 2.3199C7.12002 2.3999 6.56002 2.6399 6.08002 2.9599L5.12002 2.2399C4.80002 1.9999 4.40002 1.9999 4.08002 2.3199L2.24002 4.1599C2.00002 4.3999 1.92002 4.8799 2.16002 5.1999L2.88002 6.1599C2.56002 6.6399 2.40002 7.1999 2.24002 7.7599L1.04002 7.9199C0.640024 7.9999 0.400024 8.3199 0.400024 8.7199V11.3599C0.400024 11.7599 0.720024 12.0799 1.04002 12.1599L2.24002 12.3199C2.40002 12.8799 2.64002 13.3599 2.88002 13.9199L2.24002 14.8799C2.00002 15.1999 2.00002 15.5999 2.32002 15.9199L4.16002 17.7599C4.40002 17.9999 4.88002 18.0799 5.20002 17.8399L6.16002 17.1199C6.64002 17.3599 7.12002 17.5999 7.60002 17.7599L7.76002 18.9599C7.84002 19.3599 8.16002 19.5999 8.56002 19.5999H11.2C11.6 19.5999 11.92 19.2799 12 18.9599L12.16 17.7599C12.72 17.5999 13.2 17.3599 13.68 17.1199L14.72 17.8399C15.04 18.0799 15.52 17.9999 15.76 17.7599L17.6 15.9199C17.84 15.6799 17.92 15.1999 17.68 14.8799L16.96 13.8399C17.2 13.3599 17.44 12.8799 17.6 12.3999L18.88 12.1599C19.28 12.0799 19.52 11.7599 19.52 11.3599V8.7199C19.6 8.3199 19.28 7.9999 18.96 7.9199ZM14.64 13.7599C13.92 12.8799 13.04 12.2399 11.92 11.8399C11.76 11.7599 11.6 11.8399 11.52 11.8399C11.04 11.9999 10.56 12.1599 10.08 12.1599C9.60002 12.1599 9.04002 12.0799 8.64002 11.8399C8.48002 11.7599 8.32002 11.7599 8.24002 11.8399C7.12002 12.2399 6.16002 12.8799 5.52002 13.7599C4.72002 12.7199 4.24002 11.4399 4.24002 10.0799C4.24002 6.7999 6.88002 4.0799 10.24 4.0799C13.52 4.0799 16.16 6.7199 16.16 10.0799C15.92 11.4399 15.44 12.7199 14.64 13.7599Z" fill="#78716C"/>
<path d="M9.99998 6.08008C8.63998 6.08008 7.59998 7.20008 7.59998 8.48008C7.59998 9.84008 8.63998 10.8801 9.99998 10.8801C11.28 10.8801 12.4 9.84008 12.4 8.48008C12.4 7.12008 11.36 6.08008 9.99998 6.08008Z" fill="#78716C"/>
</svg>
