<svg width="40" height="40" viewBox="0 0 40 40" fill="none" xmlns="http://www.w3.org/2000/svg">
<path d="M19.9622 0C8.93556 0 0 8.95249 0 20C0 31.0475 8.93556 40 19.9622 40C30.9888 40 39.9244 31.0475 39.9244 20C39.9244 8.95249 30.9888 0 19.9622 0ZM26.7756 30.7087C21.6296 30.7087 17.5291 27.2274 17.4863 27.1924C16.9383 26.7134 16.8761 25.8801 17.3503 25.3232C17.8284 24.7741 18.6601 24.7118 19.2159 25.1869C19.5346 25.4595 27.1099 31.8341 33.694 24.7079C34.1876 24.1706 35.0232 24.1394 35.5596 24.634C35.82 24.8754 35.9716 25.2025 35.9832 25.5569C35.9949 25.9112 35.8744 26.2461 35.6334 26.507C33.0565 29.2952 30.0754 30.7087 26.7756 30.7087Z" fill="#06B6E9"/>
</svg>
