<svg width="20" height="20" viewBox="0 0 20 20" fill="none" xmlns="http://www.w3.org/2000/svg">
<path fill-rule="evenodd" clip-rule="evenodd" d="M6.09302 2.55814V5.16278C6.09302 5.3108 6.15182 5.45277 6.25649 5.55744C6.36116 5.66211 6.50313 5.72091 6.65116 5.72091C6.79918 5.72091 6.94115 5.66211 7.04582 5.55744C7.15049 5.45277 7.2093 5.3108 7.2093 5.16278V2.55814C7.2093 2.41011 7.15049 2.26815 7.04582 2.16347C6.94115 2.0588 6.79918 2 6.65116 2C6.50313 2 6.36116 2.0588 6.25649 2.16347C6.15182 2.26815 6.09302 2.41011 6.09302 2.55814ZM12.7907 2.55814V5.16278C12.7907 5.3108 12.8495 5.45277 12.9542 5.55744C13.0588 5.66211 13.2008 5.72091 13.3488 5.72091C13.4969 5.72091 13.6388 5.66211 13.7435 5.55744C13.8482 5.45277 13.907 5.3108 13.907 5.16278V2.55814C13.907 2.41011 13.8482 2.26815 13.7435 2.16347C13.6388 2.0588 13.4969 2 13.3488 2C13.2008 2 13.0588 2.0588 12.9542 2.16347C12.8495 2.26815 12.7907 2.41011 12.7907 2.55814Z" fill="#78716C"/>
<path fill-rule="evenodd" clip-rule="evenodd" d="M18 11.5694V8.88362H2V15.0231C2 15.7633 2.29402 16.4731 2.81738 16.9964C3.34073 17.5198 4.05056 17.8138 4.7907 17.8138H11.3031C10.725 17.3809 10.2558 16.8192 9.93276 16.1733C9.60968 15.5274 9.4416 14.8151 9.44186 14.0929C9.44265 12.8596 9.93293 11.677 10.805 10.8049C11.6771 9.93282 12.8597 9.44254 14.093 9.44175C15.7302 9.44175 17.171 10.2894 18 11.5694ZM7.95349 3.30225V5.1627C7.95348 5.36553 7.9061 5.56556 7.81512 5.74684C7.72413 5.92812 7.59207 6.08564 7.42944 6.20686C7.26681 6.32807 7.07811 6.40962 6.87839 6.44501C6.67867 6.4804 6.47345 6.46865 6.27907 6.4107V3.30225H4.7907C4.05056 3.30225 3.34073 3.59626 2.81738 4.11962C2.29402 4.64297 2 5.3528 2 6.09293V7.76734H18V6.09293C18 5.3528 17.706 4.64297 17.1826 4.11962C16.6593 3.59626 15.9494 3.30225 15.2093 3.30225H14.6512V5.1627C14.6512 5.36553 14.6038 5.56556 14.5128 5.74684C14.4218 5.92812 14.2897 6.08564 14.1271 6.20686C13.9645 6.32807 13.7758 6.40962 13.5761 6.44501C13.3763 6.4804 13.1711 6.46865 12.9767 6.4107V3.30225H7.95349Z" fill="#78716C"/>
<path fill-rule="evenodd" clip-rule="evenodd" d="M14.093 10.186C11.9364 10.186 10.186 11.9364 10.186 14.093C10.186 16.2496 11.9364 18 14.093 18C16.2497 18 18 16.2496 18 14.093C18 11.9364 16.2497 10.186 14.093 10.186ZM12.2102 14.3014L13.3265 15.4176C13.3783 15.4695 13.4398 15.5106 13.5074 15.5387C13.5751 15.5667 13.6477 15.5812 13.7209 15.5812C13.7942 15.5812 13.8667 15.5667 13.9344 15.5387C14.0021 15.5106 14.0636 15.4695 14.1153 15.4176L15.9758 13.5572C16.0276 13.5054 16.0687 13.4439 16.0967 13.3762C16.1247 13.3085 16.1392 13.236 16.1392 13.1628C16.1392 13.0895 16.1247 13.017 16.0967 12.9493C16.0687 12.8816 16.0276 12.8201 15.9758 12.7683C15.924 12.7166 15.8625 12.6755 15.7948 12.6474C15.7272 12.6194 15.6546 12.605 15.5814 12.605C15.5081 12.605 15.4356 12.6194 15.3679 12.6474C15.3003 12.6755 15.2388 12.7166 15.187 12.7683L13.7209 14.2336L12.9991 13.5125C12.9473 13.4607 12.8858 13.4196 12.8181 13.3916C12.7504 13.3636 12.6779 13.3492 12.6046 13.3492C12.5314 13.3492 12.4589 13.3636 12.3912 13.3916C12.3235 13.4196 12.262 13.4607 12.2102 13.5125C12.1584 13.5643 12.1173 13.6258 12.0893 13.6935C12.0613 13.7612 12.0468 13.8337 12.0468 13.9069C12.0468 13.9802 12.0613 14.0527 12.0893 14.1204C12.1173 14.1881 12.1584 14.2496 12.2102 14.3014Z" fill="#78716C"/>
</svg>
