<svg width="58" height="24" viewBox="0 0 58 24" fill="none" xmlns="http://www.w3.org/2000/svg">
<path d="M7.7301 4.36763H3.12045V0.290527H0.928345V10.419H3.12045V6.38476H7.7301V10.419H9.9261V0.290527H7.7301V4.36763Z" fill="#808285"/>
<path d="M13.6067 10.419H19.0442V8.44864H13.8632V6.34194H18.64V4.37154H13.8632V2.26484H18.9548V0.294434H13.6067C12.9149 0.294434 12.4213 0.465774 12.1181 0.804559C11.8188 1.14724 11.6672 1.60674 11.6672 2.19085V8.5421C11.6672 9.11453 11.8188 9.57014 12.1181 9.91281C12.4174 10.2555 12.9149 10.4229 13.6067 10.4229V10.419Z" fill="#808285"/>
<path d="M22.9659 3.07857C23.2263 2.7943 23.5334 2.57234 23.8909 2.41657C24.2446 2.26081 24.6333 2.18293 25.057 2.18293C25.6672 2.18293 26.1725 2.31143 26.5728 2.56844C26.9731 2.82545 27.2996 3.17203 27.5483 3.61595L29.3362 2.60738C29.0953 2.0739 28.7571 1.62608 28.3218 1.25224C27.8865 0.882307 27.3929 0.594145 26.841 0.395547C26.2891 0.196949 25.7255 0.0957031 25.1425 0.0957031C24.4001 0.0957031 23.716 0.231996 23.0825 0.500687C22.4529 0.773273 21.8971 1.1471 21.4151 1.62997C20.9332 2.11284 20.56 2.66969 20.2957 3.30053C20.0314 3.93137 19.8993 4.62062 19.8993 5.36439C19.8993 6.10816 20.0314 6.78184 20.2957 7.42047C20.56 8.0591 20.9332 8.61595 21.4151 9.09882C21.8971 9.58168 22.4529 9.95552 23.0825 10.2281C23.7122 10.5007 24.4001 10.6331 25.1425 10.6331C25.7216 10.6331 26.2891 10.5318 26.841 10.3332C27.3929 10.1307 27.8865 9.84648 28.3218 9.47654C28.7571 9.10661 29.0953 8.65489 29.3362 8.1214L27.5483 7.11284C27.3074 7.54508 26.9848 7.89165 26.5806 8.15256C26.1763 8.41346 25.6672 8.54586 25.057 8.54586C24.6372 8.54586 24.2446 8.46798 23.8871 8.31221C23.5256 8.15645 23.2185 7.93449 22.962 7.65022C22.7055 7.36595 22.5073 7.02717 22.3674 6.63387C22.2274 6.24056 22.1575 5.82 22.1575 5.36829C22.1575 4.91658 22.2274 4.48433 22.3674 4.09492C22.5073 3.70941 22.7094 3.37062 22.9698 3.08636L22.9659 3.07857Z" fill="#808285"/>
<path d="M36.1109 5.87851C36.006 5.6838 35.9516 5.4891 35.9516 5.29829C35.9516 5.10748 36.006 4.91278 36.1109 4.71028C36.2159 4.50779 36.3674 4.27415 36.5696 4.00156L39.4535 0.282715H36.9582L34.5096 3.39798C34.2608 3.72508 34.0743 4.04829 33.9538 4.35982H32.6595V0.282715H30.4674V10.4112H32.6595V6.37695H33.9732C34.1015 6.68458 34.2803 7.0039 34.5057 7.32711L36.8494 10.4112H39.539L36.5657 6.57165C36.3636 6.29907 36.212 6.06932 36.107 5.87072L36.1109 5.87851Z" fill="#808285"/>
<path d="M42.2751 6.33803H47.0519V4.36763H42.2751V2.26093H47.3667V0.290527H42.0186C41.3267 0.290527 40.8331 0.461867 40.53 0.800652C40.2307 1.14333 40.0791 1.60283 40.0791 2.18694V8.53819C40.0791 9.11062 40.2307 9.56623 40.53 9.90891C40.8292 10.2516 41.3267 10.419 42.0186 10.419H47.4561V8.44863H42.2751V6.34193V6.33803Z" fill="#808285"/>
<path d="M56.5745 8.41747C56.3024 7.85673 56.0459 7.39722 55.8011 7.03897C55.5834 6.72355 55.3191 6.48211 55.0198 6.31467C55.2608 6.25236 55.4824 6.1667 55.6883 6.05377C56.1392 5.80455 56.4929 5.45797 56.7494 5.02183C57.0059 4.5857 57.1342 4.07947 57.1342 3.51093C57.1342 2.78663 56.9554 2.19084 56.6017 1.71187C56.248 1.23679 55.7622 0.878533 55.152 0.644889C54.5418 0.40735 53.8538 0.290527 53.092 0.290527H49.2014V10.419H51.3663L51.378 7.18305H52.2369C52.6178 7.18305 52.9288 7.23757 53.1775 7.35049C53.4224 7.45953 53.6323 7.62308 53.7994 7.83336C53.9704 8.04364 54.1298 8.30454 54.2814 8.61607L55.1831 10.4229H57.5579L56.5823 8.42137L56.5745 8.41747ZM53.0881 5.22433H51.3819L51.3935 2.31934H53.1231C53.4535 2.31934 53.7528 2.36607 54.0171 2.46342C54.2813 2.56078 54.4912 2.70875 54.6467 2.91514C54.8022 3.12152 54.8799 3.39411 54.8799 3.73679C54.8799 4.04831 54.8022 4.31701 54.6467 4.54286C54.4912 4.76872 54.2813 4.94006 54.0171 5.05299C53.7528 5.16981 53.4418 5.22433 53.092 5.22433H53.0881Z" fill="#808285"/>
<path d="M6.9565 14.0172C6.26855 13.7251 5.44846 13.5811 4.48455 13.5811H0.924316V23.7096L3.11642 23.694V21.0304H4.60504C5.53785 21.0304 6.33852 20.8864 7.00703 20.5943C7.67943 20.3022 8.19637 19.8778 8.56172 19.3209C8.92707 18.7641 9.10974 18.0787 9.10974 17.2649C9.10974 16.451 8.92318 15.8046 8.54617 15.2633C8.16916 14.722 7.64057 14.3054 6.95262 14.0133L6.9565 14.0172ZM6.58338 18.2423C6.39681 18.4993 6.1364 18.6901 5.79437 18.8147C5.45234 18.9393 5.03647 19.0016 4.54674 19.0016H3.12031V15.6138H4.54674C5.02869 15.6138 5.44069 15.6722 5.7866 15.7929C6.13252 15.9136 6.39681 16.0966 6.58338 16.342C6.76994 16.5873 6.85933 16.8949 6.85933 17.2687C6.85933 17.6582 6.76605 17.9853 6.58338 18.2384V18.2423Z" fill="#808285"/>
<path d="M12.3902 19.6325H17.167V17.6621H12.3902V15.5554H17.4818V13.585H12.1337C11.4418 13.585 10.9482 13.7563 10.6451 14.0951C10.3458 14.4378 10.1942 14.8973 10.1942 15.4814V21.8326C10.1942 22.4051 10.3458 22.8607 10.6451 23.2033C10.9444 23.546 11.4418 23.7135 12.1337 23.7135H17.5712V21.7431H12.3902V19.6364V19.6325Z" fill="#808285"/>
<path d="M27.4862 14.905C27.0043 14.4338 26.4485 14.0638 25.811 13.7991C25.1736 13.5343 24.4818 13.4019 23.7316 13.4019C22.9815 13.4019 22.2975 13.5343 21.66 13.7991C21.0187 14.0638 20.459 14.4338 19.9849 14.905C19.5107 15.3762 19.1376 15.933 18.8733 16.5755C18.609 17.2181 18.4768 17.9112 18.4768 18.6511C18.4768 19.391 18.609 20.088 18.8733 20.7266C19.1376 21.3691 19.5107 21.9299 19.9849 22.405C20.459 22.88 21.0187 23.25 21.66 23.5109C22.3013 23.7718 22.9932 23.9042 23.7316 23.9042C24.4701 23.9042 25.1775 23.7718 25.811 23.5109C26.4485 23.25 27.0043 22.88 27.4862 22.405C27.9682 21.9299 28.3413 21.3691 28.6056 20.7266C28.8699 20.0841 29.002 19.391 29.002 18.6511C29.002 17.9112 28.8699 17.2181 28.6056 16.5755C28.3413 15.933 27.9682 15.3762 27.4862 14.905ZM26.5107 19.8972C26.3591 20.2827 26.1492 20.6215 25.8732 20.9135C25.5973 21.2056 25.2786 21.4314 24.9132 21.5911C24.5479 21.7508 24.1553 21.8325 23.7355 21.8325C23.3158 21.8325 22.9232 21.7508 22.5579 21.5911C22.1925 21.4314 21.8699 21.2056 21.5978 20.9135C21.3219 20.6215 21.1081 20.2827 20.9604 19.8972C20.8088 19.5117 20.735 19.0989 20.735 18.655C20.735 18.211 20.8088 17.7866 20.9604 17.405C21.112 17.0234 21.3219 16.6885 21.5978 16.3964C21.8738 16.1043 22.1925 15.8785 22.5579 15.7188C22.9232 15.5592 23.3158 15.4774 23.7355 15.4774C24.1553 15.4774 24.5479 15.5592 24.9132 15.7188C25.2786 15.8785 25.5973 16.1043 25.8732 16.3964C26.1492 16.6885 26.363 17.0234 26.5107 17.405C26.6622 17.7866 26.7361 18.2033 26.7361 18.655C26.7361 19.1067 26.6622 19.5117 26.5107 19.8972Z" fill="#808285"/>
<path d="M36.4528 14.0172C35.7649 13.7251 34.9448 13.5811 33.9809 13.5811H30.4207V23.7096L32.6128 23.694V21.0304H34.1014C35.0342 21.0304 35.8349 20.8864 36.5034 20.5943C37.1758 20.3022 37.6927 19.8778 38.0581 19.3209C38.4234 18.7641 38.6061 18.0787 38.6061 17.2649C38.6061 16.451 38.4195 15.8046 38.0425 15.2633C37.6655 14.722 37.1369 14.3054 36.449 14.0133L36.4528 14.0172ZM36.0758 18.2423C35.8893 18.4993 35.6289 18.6901 35.2868 18.8147C34.9448 18.9393 34.5289 19.0016 34.0392 19.0016H32.6128V15.6138H34.0392C34.5211 15.6138 34.9331 15.6722 35.2791 15.7929C35.625 15.9136 35.8893 16.0966 36.0758 16.342C36.2624 16.5873 36.3518 16.8949 36.3518 17.2687C36.3518 17.6582 36.2585 17.9853 36.0758 18.2384V18.2423Z" fill="#808285"/>
<path d="M41.9952 13.5811H39.8031V21.8287C39.8031 22.4011 39.9547 22.8568 40.254 23.1994C40.5532 23.5421 41.0507 23.7096 41.7426 23.7096H46.7137V21.6768H41.9952V13.5811Z" fill="#808285"/>
<path d="M49.7221 19.6325H54.4989V17.6621H49.7221V15.5554H54.8137V13.585H49.4656C48.7738 13.585 48.2801 13.7563 47.977 14.0951C47.6777 14.4378 47.5261 14.8973 47.5261 15.4814V21.8326C47.5261 22.4051 47.6777 22.8607 47.977 23.2033C48.2763 23.546 48.7738 23.7135 49.4656 23.7135H54.9031V21.7431H49.7221V19.6364V19.6325Z" fill="#808285"/>
</svg>
