<svg width="18" height="18" viewBox="0 0 18 18" fill="none" xmlns="http://www.w3.org/2000/svg">
<path d="M17.5669 16.6829L14.5388 13.6542C15.9098 12.0545 16.6079 9.98587 16.4866 7.88253C16.3653 5.77918 15.4339 3.80459 13.8881 2.37314C12.3422 0.941686 10.302 0.164657 8.1955 0.205118C6.08905 0.245579 4.08015 1.10038 2.59039 2.59015C1.10063 4.07991 0.245823 6.08881 0.205362 8.19526C0.164901 10.3017 0.94193 12.342 2.37338 13.8878C3.80484 15.4337 5.77943 16.365 7.88277 16.4863C9.98612 16.6077 12.0547 15.9096 13.6544 14.5385L16.6831 17.5667C16.801 17.6805 16.9589 17.7435 17.1228 17.7421C17.2866 17.7407 17.4434 17.6749 17.5593 17.559C17.6752 17.4432 17.7409 17.2864 17.7423 17.1225C17.7437 16.9587 17.6807 16.8008 17.5669 16.6829ZM11.5 12.1248C11.3343 12.1248 11.1753 12.0589 11.0581 11.9417C10.9409 11.8245 10.875 11.6655 10.875 11.4998C10.875 10.8367 10.6116 10.2009 10.1428 9.73201C9.67395 9.26317 9.03806 8.99978 8.37502 8.99978C7.71198 8.99978 7.0761 9.26317 6.60726 9.73201C6.13841 10.2009 5.87502 10.8367 5.87502 11.4998C5.87502 11.6655 5.80918 11.8245 5.69196 11.9417C5.57475 12.0589 5.41578 12.1248 5.25002 12.1248C5.08426 12.1248 4.92529 12.0589 4.80808 11.9417C4.69087 11.8245 4.62502 11.6655 4.62502 11.4998C4.62541 10.8289 4.80579 10.1703 5.14734 9.59287C5.4889 9.01541 5.97912 8.54015 6.5669 8.21665C6.22883 7.8626 6.00215 7.41708 5.91498 6.93536C5.82781 6.45365 5.88398 5.95695 6.07653 5.50687C6.26908 5.05679 6.58953 4.67315 6.99812 4.40353C7.40672 4.13391 7.88549 3.99019 8.37502 3.99019C8.86456 3.99019 9.34332 4.13391 9.75192 4.40353C10.1605 4.67315 10.481 5.05679 10.6735 5.50687C10.8661 5.95695 10.9222 6.45365 10.8351 6.93536C10.7479 7.41708 10.5212 7.8626 10.1831 8.21665C10.7709 8.54015 11.2611 9.01541 11.6027 9.59287C11.9443 10.1703 12.1246 10.8289 12.125 11.4998C12.125 11.6655 12.0592 11.8245 11.942 11.9417C11.8248 12.0589 11.6658 12.1248 11.5 12.1248Z" fill="#78716C"/>
<path d="M8.375 7.75C9.06536 7.75 9.625 7.19036 9.625 6.5C9.625 5.80964 9.06536 5.25 8.375 5.25C7.68464 5.25 7.125 5.80964 7.125 6.5C7.125 7.19036 7.68464 7.75 8.375 7.75Z" fill="#78716C"/>
</svg>
