<svg width="20" height="20" viewBox="0 0 20 20" fill="none" xmlns="http://www.w3.org/2000/svg">
<path fill-rule="evenodd" clip-rule="evenodd" d="M2.64294 4.30981C1.66663 5.28612 1.66663 6.85747 1.66663 10.0002C1.66663 13.1429 1.66663 14.7142 2.64294 15.6905C3.61925 16.6668 5.1906 16.6668 8.33329 16.6668H11.6666C14.8093 16.6668 16.3807 16.6668 17.357 15.6905C18.3333 14.7142 18.3333 13.1429 18.3333 10.0002C18.3333 6.85747 18.3333 5.28612 17.357 4.30981C16.3807 3.3335 14.8093 3.3335 11.6666 3.3335H8.33329C5.1906 3.3335 3.61925 3.3335 2.64294 4.30981ZM15.4801 6.26671C15.7011 6.53189 15.6652 6.92599 15.4001 7.14697L13.5697 8.6723C12.831 9.28785 12.2324 9.78676 11.704 10.1266C11.1536 10.4806 10.6175 10.7042 9.99996 10.7042C9.38239 10.7042 8.84635 10.4806 8.29594 10.1266C7.76756 9.78676 7.16889 9.28786 6.43026 8.67231L4.59984 7.14697C4.33467 6.92599 4.29884 6.53189 4.51982 6.26671C4.7408 6.00154 5.1349 5.96571 5.40007 6.18669L7.19915 7.68592C7.97662 8.33381 8.5164 8.78218 8.97211 9.07527C9.41324 9.35899 9.7124 9.45423 9.99996 9.45423C10.2875 9.45423 10.5867 9.35899 11.0278 9.07527C11.4835 8.78218 12.0233 8.33381 12.8008 7.68592L14.5998 6.18669C14.865 5.96571 15.2591 6.00154 15.4801 6.26671Z" fill="#78716C"/>
</svg>
