<svg width="20" height="20" viewBox="0 0 20 20" fill="none" xmlns="http://www.w3.org/2000/svg">
<ellipse cx="7.50081" cy="4.99984" rx="3.33333" ry="3.33333" fill="#0592BA"/>
<ellipse cx="7.50081" cy="14.1673" rx="5.83333" ry="3.33333" fill="#0592BA"/>
<path d="M17.4997 14.1669C17.4997 15.5476 15.8034 16.6669 13.7324 16.6669C14.3425 16 14.7621 15.1628 14.7621 14.1681C14.7621 13.1722 14.3416 12.3343 13.7302 11.667C15.8013 11.667 17.4997 12.7862 17.4997 14.1669Z" fill="#0592BA"/>
<path d="M14.9997 5.00049C14.9997 6.3812 13.8804 7.50049 12.4997 7.50049C12.1987 7.50049 11.91 7.44727 11.6427 7.34972C12.0369 6.65631 12.2621 5.85423 12.2621 4.99956C12.2621 4.14552 12.0373 3.34399 11.6436 2.65093C11.9106 2.55359 12.199 2.50049 12.4997 2.50049C13.8804 2.50049 14.9997 3.61978 14.9997 5.00049Z" fill="#0592BA"/>
</svg>
