<svg width="20" height="20" viewBox="0 0 20 20" fill="none" xmlns="http://www.w3.org/2000/svg">
<path fill-rule="evenodd" clip-rule="evenodd" d="M1.66663 9.99984C1.66663 5.39746 5.39759 1.6665 9.99996 1.6665C14.6023 1.6665 18.3333 5.39746 18.3333 9.99984C18.3333 14.6022 14.6023 18.3332 9.99996 18.3332C5.39759 18.3332 1.66663 14.6022 1.66663 9.99984ZM9.37496 4.1665C9.37496 3.82133 9.65478 3.5415 9.99996 3.5415C13.5668 3.5415 16.4583 6.433 16.4583 9.99984C16.4583 13.5667 13.5668 16.4582 9.99996 16.4582C6.43312 16.4582 3.54163 13.5667 3.54163 9.99984C3.54163 9.65466 3.82145 9.37484 4.16663 9.37484C4.5118 9.37484 4.79163 9.65466 4.79163 9.99984C4.79163 12.8763 7.12348 15.2082 9.99996 15.2082C12.8764 15.2082 15.2083 12.8763 15.2083 9.99984C15.2083 7.12335 12.8764 4.7915 9.99996 4.7915C9.65478 4.7915 9.37496 4.51168 9.37496 4.1665ZM9.99996 6.0415C9.65478 6.0415 9.37496 6.32133 9.37496 6.6665C9.37496 7.01168 9.65478 7.2915 9.99996 7.2915C11.4957 7.2915 12.7083 8.50407 12.7083 9.99984C12.7083 11.4956 11.4957 12.7082 9.99996 12.7082C9.65478 12.7082 9.37496 12.988 9.37496 13.3332C9.37496 13.6783 9.65478 13.9582 9.99996 13.9582C12.1861 13.9582 13.9583 12.186 13.9583 9.99984C13.9583 7.81371 12.1861 6.0415 9.99996 6.0415Z" fill="#78716C"/>
</svg>
