<svg width="20" height="20" viewBox="0 0 20 20" fill="none" xmlns="http://www.w3.org/2000/svg">
<path fill-rule="evenodd" clip-rule="evenodd" d="M8.33329 3.3335H11.6666C14.8093 3.3335 16.3807 3.3335 17.357 4.30981C18.3333 5.28612 18.3333 6.85747 18.3333 10.0002C18.3333 13.1429 18.3333 14.7142 17.357 15.6905C16.3807 16.6668 14.8093 16.6668 11.6666 16.6668H8.33329C5.1906 16.6668 3.61925 16.6668 2.64294 15.6905C1.66663 14.7142 1.66663 13.1429 1.66663 10.0002C1.66663 6.85747 1.66663 5.28612 2.64294 4.30981C3.61925 3.3335 5.1906 3.3335 8.33329 3.3335ZM11.0416 7.50016C11.0416 7.15498 11.3214 6.87516 11.6666 6.87516H15.8333C16.1785 6.87516 16.4583 7.15498 16.4583 7.50016C16.4583 7.84534 16.1785 8.12516 15.8333 8.12516H11.6666C11.3214 8.12516 11.0416 7.84534 11.0416 7.50016ZM11.875 10.0002C11.875 9.65498 12.1548 9.37516 12.5 9.37516H15.8333C16.1785 9.37516 16.4583 9.65498 16.4583 10.0002C16.4583 10.3453 16.1785 10.6252 15.8333 10.6252H12.5C12.1548 10.6252 11.875 10.3453 11.875 10.0002ZM12.7083 12.5002C12.7083 12.155 12.9881 11.8752 13.3333 11.8752H15.8333C16.1785 11.8752 16.4583 12.155 16.4583 12.5002C16.4583 12.8453 16.1785 13.1252 15.8333 13.1252H13.3333C12.9881 13.1252 12.7083 12.8453 12.7083 12.5002ZM9.16663 7.50016C9.16663 8.42064 8.42043 9.16683 7.49996 9.16683C6.57948 9.16683 5.83329 8.42064 5.83329 7.50016C5.83329 6.57969 6.57948 5.8335 7.49996 5.8335C8.42043 5.8335 9.16663 6.57969 9.16663 7.50016ZM7.49996 14.1668C10.8333 14.1668 10.8333 13.4206 10.8333 12.5002C10.8333 11.5797 9.34091 10.8335 7.49996 10.8335C5.65901 10.8335 4.16663 11.5797 4.16663 12.5002C4.16663 13.4206 4.16663 14.1668 7.49996 14.1668Z" fill="#78716C"/>
</svg>
