<svg width="18" height="18" viewBox="0 0 18 18" fill="none" xmlns="http://www.w3.org/2000/svg">
<path d="M1.5 4.875C1.5 3.28401 1.5 2.48851 1.99426 1.99426C2.48851 1.5 3.28401 1.5 4.875 1.5C6.46599 1.5 7.26149 1.5 7.75574 1.99426C8.25 2.48851 8.25 3.28401 8.25 4.875C8.25 6.46599 8.25 7.26149 7.75574 7.75574C7.26149 8.25 6.46599 8.25 4.875 8.25C3.28401 8.25 2.48851 8.25 1.99426 7.75574C1.5 7.26149 1.5 6.46599 1.5 4.875Z" fill="#0592BA"/>
<path d="M9.75 13.125C9.75 11.534 9.75 10.7385 10.2443 10.2443C10.7385 9.75 11.534 9.75 13.125 9.75C14.716 9.75 15.5115 9.75 16.0057 10.2443C16.5 10.7385 16.5 11.534 16.5 13.125C16.5 14.716 16.5 15.5115 16.0057 16.0057C15.5115 16.5 14.716 16.5 13.125 16.5C11.534 16.5 10.7385 16.5 10.2443 16.0057C9.75 15.5115 9.75 14.716 9.75 13.125Z" fill="#0592BA"/>
<path d="M1.5 13.125C1.5 11.534 1.5 10.7385 1.99426 10.2443C2.48851 9.75 3.28401 9.75 4.875 9.75C6.46599 9.75 7.26149 9.75 7.75574 10.2443C8.25 10.7385 8.25 11.534 8.25 13.125C8.25 14.716 8.25 15.5115 7.75574 16.0057C7.26149 16.5 6.46599 16.5 4.875 16.5C3.28401 16.5 2.48851 16.5 1.99426 16.0057C1.5 15.5115 1.5 14.716 1.5 13.125Z" fill="#0592BA"/>
<path d="M9.75 4.875C9.75 3.28401 9.75 2.48851 10.2443 1.99426C10.7385 1.5 11.534 1.5 13.125 1.5C14.716 1.5 15.5115 1.5 16.0057 1.99426C16.5 2.48851 16.5 3.28401 16.5 4.875C16.5 6.46599 16.5 7.26149 16.0057 7.75574C15.5115 8.25 14.716 8.25 13.125 8.25C11.534 8.25 10.7385 8.25 10.2443 7.75574C9.75 7.26149 9.75 6.46599 9.75 4.875Z" fill="#0592BA"/>
</svg>
